<?xml version="1.0" encoding="UTF-8"?> <svg xmlns="http://www.w3.org/2000/svg" xmlns:xlink="http://www.w3.org/1999/xlink" id="e0x4dgd4747dn1" viewBox="0 0 2250.226000 1047.105000" shape-rendering="geometricPrecision" text-rendering="geometricPrecision"><style><![CDATA[#e0x4dgd4747dn8_ts {animation: e0x4dgd4747dn8_ts__ts 3000ms linear infinite normal forwards}@keyframes e0x4dgd4747dn8_ts__ts { 0% {transform: translate(627.744141px,178.984375px) scale(1,1);animation-timing-function: cubic-bezier(0.420000,0,0.580000,1)} 50% {transform: translate(627.744141px,178.984375px) scale(1.246691,1.246691)} 100% {transform: translate(627.744141px,178.984375px) scale(1,1)} }]]></style><g id="e0x4dgd4747dn2"><path id="e0x4dgd4747dn3" d="M83.186000,468.716000C83.186000,438.833000,88.384000,412.686000,98.787000,390.274000C109.183000,367.862000,123.177000,349.116000,140.755000,334.024000C158.333000,318.939000,178.692000,307.657000,201.839000,300.186000C224.979000,292.715000,249.300000,288.980000,274.788000,288.980000C300.276000,288.980000,324.446000,292.352000,347.298000,299.087000C370.150000,305.830000,390.364000,316.226000,407.943000,330.288000C413.505000,321.794000,418.050000,312.861000,421.566000,303.481000C425.082000,294.108000,426.839000,284.735000,426.839000,275.356000C426.839000,263.051000,423.543000,253.239000,416.951000,245.913000C410.359000,238.593000,401.934000,234.927000,391.682000,234.927000L391.682000,222.183000C398.123000,220.137000,403.836000,218.304000,408.821000,216.690000C413.799000,215.083000,418.338000,213.834000,422.444000,212.955000C426.543000,212.076000,430.643000,211.417000,434.749000,210.977000C438.848000,210.538000,443.387000,210.318000,448.372000,210.318000C462.139000,210.318000,472.686000,214.568000,480.013000,223.062000C487.333000,231.562000,490.999000,243.277000,490.999000,258.218000C490.999000,267.007000,488.946000,275.727000,484.847000,284.365000C480.741000,293.010000,475.618000,301.284000,469.466000,309.194000C463.314000,317.104000,456.502000,324.575000,449.031000,331.606000C441.560000,338.637000,434.453000,344.790000,427.718000,350.063000C440.023000,364.126000,449.540000,380.536000,456.282000,399.282000C463.018000,418.034000,466.389000,439.423000,466.389000,463.442000C466.389000,493.620000,461.184000,520.282000,450.788000,543.422000C440.385000,566.569000,426.398000,586.048000,408.820000,601.869000C391.242000,617.690000,370.876000,629.631000,347.736000,637.685000C324.589000,645.746000,300.275000,649.769000,274.787000,649.769000C259.846000,649.769000,245.193000,648.451000,230.842000,645.814000C216.484000,643.177000,203.006000,639.374000,190.412000,634.388000C185.722000,637.904000,181.692000,642.298000,178.327000,647.572000C174.955000,652.845000,173.273000,658.710000,173.273000,665.150000C173.273000,675.993000,177.956000,684.046000,187.336000,689.320000C196.709000,694.593000,209.158000,698.405000,224.690000,700.746000C240.215000,703.095000,257.793000,704.558000,277.424000,705.141000C297.049000,705.732000,317.195000,706.680000,337.849000,707.998000C358.503000,709.316000,378.642000,711.809000,398.274000,715.469000C417.899000,719.135000,435.477000,725.137000,451.008000,733.487000C466.533000,741.837000,478.982000,753.186000,488.362000,767.544000C497.735000,781.896000,502.425000,800.503000,502.425000,823.355000C502.425000,840.054000,498.909000,855.065000,491.878000,868.400000C484.847000,881.727000,475.399000,893.449000,463.533000,903.556000C451.667000,913.663000,437.894000,922.300000,422.224000,929.484000C406.548000,936.660000,389.993000,942.515000,372.566000,947.062000C355.132000,951.601000,337.410000,954.896000,319.392000,956.949000C301.374000,958.996000,284.160000,960.025000,267.756000,960.025000C237.873000,960.025000,210.991000,958.488000,187.116000,955.412000C163.235000,952.336000,142.951000,947.570000,126.252000,941.129000C109.553000,934.682000,96.658000,926.332000,87.580000,916.080000C78.496000,905.822000,73.957000,893.517000,73.957000,879.166000C73.957000,868.908000,76.298000,859.460000,80.988000,850.822000C85.671000,842.176000,91.899000,834.266000,99.665000,827.092000C107.424000,819.909000,116.144000,813.469000,125.812000,807.756000C135.480000,802.043000,145.292000,796.693000,155.255000,791.715000C140.602000,785.563000,128.373000,776.259000,118.561000,763.811000C108.742000,751.355000,103.839000,734.882000,103.839000,714.372000C103.839000,703.537000,105.741000,693.499000,109.552000,684.270000C113.356000,675.041000,118.265000,666.547000,124.274000,658.782000C130.275000,651.022000,136.867000,643.991000,144.049000,637.688000C151.224000,631.391000,158.180000,626.042000,164.923000,621.647000C152.907000,614.616000,141.852000,606.047000,131.744000,595.940000C121.636000,585.833000,112.992000,574.407000,105.816000,561.662000C98.634000,548.918000,93.072000,534.787000,89.117000,519.255000C85.164000,503.728000,83.186000,486.884000,83.186000,468.716000ZM400.911000,858.510000C400.911000,849.131000,397.244000,841.441000,389.925000,835.440000C382.598000,829.431000,373.006000,824.597000,361.141000,820.938000C349.276000,817.271000,335.797000,814.490000,320.711000,812.588000C305.619000,810.679000,290.313000,809.216000,274.788000,808.193000C259.256000,807.163000,244.170000,806.214000,229.524000,805.336000C214.871000,804.457000,202.127000,803.283000,191.292000,801.820000C185.140000,806.215000,179.207000,810.973000,173.494000,816.103000C167.781000,821.225000,162.796000,826.650000,158.553000,832.363000C154.303000,838.076000,150.863000,844.077000,148.226000,850.381000C145.589000,856.677000,144.271000,863.049000,144.271000,869.496000C144.271000,880.627000,147.491000,889.932000,153.939000,897.402000C160.380000,904.873000,169.100000,910.804000,180.086000,915.199000C191.072000,919.594000,203.816000,922.670000,218.318000,924.428000C232.820000,926.186000,248.125000,927.065000,264.241000,927.065000C285.623000,927.065000,304.815000,925.233000,321.809000,921.573000C338.797000,917.906000,353.154000,912.927000,364.875000,906.632000C376.589000,900.328000,385.529000,893.077000,391.682000,884.878000C397.834000,876.672000,400.911000,867.883000,400.911000,858.510000ZM334.114000,465.200000C334.114000,448.212000,333.235000,431.658000,331.477000,415.542000C329.719000,399.433000,326.643000,385.076000,322.248000,372.476000C317.853000,359.883000,311.845000,349.700000,304.230000,341.934000C296.608000,334.175000,286.796000,330.288000,274.787000,330.288000C262.771000,330.288000,252.958000,334.319000,245.344000,342.373000C237.722000,350.434000,231.721000,360.981000,227.326000,374.014000C222.931000,387.054000,219.855000,401.850000,218.097000,418.399000C216.339000,434.954000,215.460000,451.729000,215.460000,468.716000C215.460000,486.006000,216.339000,502.993000,218.097000,519.693000C219.855000,536.393000,222.931000,551.334000,227.326000,564.517000C231.721000,577.700000,237.722000,588.323000,245.344000,596.378000C252.959000,604.439000,262.771000,608.462000,274.787000,608.462000C286.796000,608.462000,296.609000,604.219000,304.230000,595.718000C311.845000,587.225000,317.853000,576.163000,322.248000,562.540000C326.643000,548.917000,329.719000,533.612000,331.477000,516.617000C333.235000,499.628000,334.114000,482.490000,334.114000,465.200000Z" fill="rgb(0,0,0)" stroke="none" stroke-width="1"></path><path id="e0x4dgd4747dn4" d="M701.057000,705.581000C701.057000,709.393000,700.398000,714.007000,699.079000,719.425000C697.761000,724.849000,694.684000,729.972000,689.850000,734.806000C685.016000,739.640000,678.054000,743.745000,668.976000,747.111000C659.892000,750.475000,647.587000,752.164000,632.062000,752.164000C616.530000,752.164000,604.376000,750.331000,595.587000,746.672000C586.798000,743.012000,580.206000,738.693000,575.812000,733.707000C571.417000,728.729000,568.705000,723.600000,567.682000,718.326000C566.652000,713.053000,566.144000,708.809000,566.144000,705.582000L566.144000,366.323000C566.144000,357.829000,564.166000,350.434000,560.211000,344.131000C556.256000,337.835000,549.588000,334.683000,540.216000,334.683000C535.231000,334.683000,530.987000,335.562000,527.472000,337.320000C523.957000,339.078000,520.145000,341.570000,516.046000,344.791000L506.817000,333.805000C513.553000,328.243000,521.099000,322.750000,529.449000,317.326000C537.799000,311.909000,546.807000,307.150000,556.475000,303.044000C566.143000,298.945000,576.539000,295.573000,587.676000,292.937000C598.806000,290.300000,610.528000,288.982000,622.832000,288.982000C641.873000,288.982000,656.670000,291.550000,667.217000,296.672000C677.764000,301.801000,685.523000,308.098000,690.508000,315.568000C695.486000,323.039000,698.487000,331.025000,699.517000,339.518000C700.540000,348.018000,701.055000,355.489000,701.055000,361.930000L701.055000,705.581000Z" fill="rgb(0,0,0)" stroke="none" stroke-width="1"></path><path id="e0x4dgd4747dn5" d="M752.473000,295.132000L833.332000,295.132000L833.332000,242.837000C833.332000,208.560000,838.894000,179.851000,850.031000,156.704000C861.161000,133.564000,875.808000,114.956000,893.976000,100.893000C912.138000,86.830000,932.717000,76.723000,955.719000,70.571000C978.715000,64.419000,1002.081000,61.342000,1025.812000,61.342000C1043.095000,61.342000,1060.158000,62.660000,1077.008000,65.297000C1093.851000,67.934000,1108.868000,72.328000,1122.052000,78.481000C1135.236000,84.633000,1145.927000,92.763000,1154.133000,102.871000C1162.331000,112.978000,1166.438000,125.503000,1166.438000,140.444000C1166.438000,146.308000,1165.338000,152.165000,1163.141000,158.022000C1160.944000,163.886000,1157.868000,169.228000,1153.912000,174.062000C1149.956000,178.896000,1145.412000,182.851000,1140.289000,185.927000C1135.160000,189.003000,1129.523000,190.541000,1123.371000,190.541000C1116.923000,190.541000,1111.650000,188.124000,1107.551000,183.290000C1103.445000,178.456000,1099.641000,172.379000,1096.125000,165.053000C1092.609000,157.733000,1089.094000,149.748000,1085.578000,141.103000C1082.062000,132.465000,1077.956000,124.479000,1073.273000,117.153000C1068.583000,109.833000,1062.946000,103.750000,1056.354000,98.916000C1049.762000,94.082000,1041.481000,91.665000,1031.525000,91.665000C1023.319000,91.665000,1015.409000,93.203000,1007.795000,96.279000C1000.173000,99.355000,993.437000,104.704000,987.580000,112.319000C981.716000,119.941000,977.033000,130.412000,973.517000,143.740000C970.001000,157.074000,968.244000,173.993000,968.244000,194.497000L968.244000,295.132000L1146.662000,295.132000C1165.702000,295.132000,1180.500000,297.700000,1191.047000,302.822000C1201.594000,307.951000,1209.353000,314.248000,1214.338000,321.718000C1219.316000,329.189000,1222.317000,337.175000,1223.346000,345.668000C1224.369000,354.168000,1224.885000,361.639000,1224.885000,368.080000L1224.885000,708.216000C1224.885000,712.028000,1224.225000,716.497000,1222.906000,721.620000C1221.588000,726.749000,1218.511000,731.583000,1213.677000,736.122000C1208.843000,740.667000,1201.812000,744.472000,1192.583000,747.548000C1183.354000,750.624000,1170.975000,752.161000,1155.450000,752.161000C1139.918000,752.161000,1127.764000,750.328000,1118.975000,746.669000C1110.186000,743.009000,1103.663000,738.690000,1099.419000,733.704000C1095.169000,728.726000,1092.532000,723.597000,1091.509000,718.323000C1090.479000,713.050000,1089.971000,708.806000,1089.971000,705.579000L1089.971000,357.974000C1089.971000,349.775000,1087.993000,342.524000,1084.038000,336.221000C1080.083000,329.925000,1073.560000,326.773000,1064.482000,326.773000L968.242000,326.773000L968.242000,673.062000C968.242000,712.909000,963.037000,749.671000,952.641000,783.365000C942.238000,817.053000,926.494000,846.132000,905.400000,870.597000C884.306000,895.055000,857.939000,914.171000,826.298000,927.945000C794.657000,941.713000,757.743000,948.599000,715.556000,948.599000C700.615000,948.599000,686.264000,947.349000,672.490000,944.865000C658.723000,942.373000,646.562000,938.931000,636.015000,934.537000C625.468000,930.143000,617.050000,924.937000,610.746000,918.937000C604.450000,912.928000,601.298000,906.261000,601.298000,898.941000C601.298000,893.668000,602.033000,888.319000,603.495000,882.902000C604.964000,877.477000,607.162000,872.574000,610.087000,868.179000C613.019000,863.784000,616.610000,860.194000,620.854000,857.413000C625.104000,854.625000,630.014000,853.237000,635.576000,853.237000C638.803000,853.237000,641.659000,854.844000,644.145000,858.071000C646.638000,861.292000,649.199000,865.247000,651.835000,869.936000C654.472000,874.620000,657.479000,879.825000,660.844000,885.538000C664.216000,891.251000,668.534000,896.448000,673.808000,901.138000C679.081000,905.822000,685.604000,909.777000,693.364000,913.003000C701.130000,916.224000,710.578000,917.837000,721.709000,917.837000C736.650000,917.837000,749.834000,914.830000,761.260000,908.829000C772.686000,902.820000,782.498000,894.546000,790.703000,883.999000C798.902000,873.452000,805.788000,860.997000,811.357000,846.645000C816.919000,832.288000,821.314000,816.907000,824.541000,800.502000C827.761000,784.092000,830.034000,766.953000,831.353000,749.086000C832.671000,731.220000,833.331000,713.347000,833.331000,695.473000L833.331000,326.772000L752.472000,326.772000L752.472000,295.132000Z" fill="rgb(0,0,0)" stroke="none" stroke-width="1"></path><path id="e0x4dgd4747dn6" d="M1316.731000,468.716000C1316.731000,438.833000,1321.928000,412.686000,1332.331000,390.274000C1342.727000,367.862000,1356.721000,349.116000,1374.299000,334.024000C1391.877000,318.939000,1412.237000,307.657000,1435.383000,300.186000C1458.524000,292.715000,1482.844000,288.980000,1508.332000,288.980000C1533.820000,288.980000,1557.990000,292.352000,1580.842000,299.087000C1603.694000,305.830000,1623.908000,316.226000,1641.487000,330.288000C1647.050000,321.794000,1651.594000,312.861000,1655.110000,303.481000C1658.626000,294.108000,1660.383000,284.735000,1660.383000,275.356000C1660.383000,263.051000,1657.088000,253.239000,1650.496000,245.913000C1643.904000,238.593000,1635.478000,234.927000,1625.226000,234.927000L1625.226000,222.183000C1631.667000,220.137000,1637.380000,218.304000,1642.365000,216.690000C1647.344000,215.083000,1651.883000,213.834000,1655.988000,212.955000C1660.088000,212.076000,1664.187000,211.417000,1668.293000,210.977000C1672.393000,210.538000,1676.932000,210.318000,1681.916000,210.318000C1695.684000,210.318000,1706.230000,214.568000,1713.557000,223.062000C1720.877000,231.562000,1724.543000,243.277000,1724.543000,258.218000C1724.543000,267.007000,1722.490000,275.727000,1718.391000,284.365000C1714.286000,293.010000,1709.162000,301.284000,1703.010000,309.194000C1696.858000,317.104000,1690.047000,324.575000,1682.576000,331.606000C1675.105000,338.637000,1667.998000,344.790000,1661.262000,350.063000C1673.567000,364.126000,1683.084000,380.536000,1689.826000,399.282000C1696.562000,418.034000,1699.933000,439.423000,1699.933000,463.442000C1699.933000,493.620000,1694.728000,520.282000,1684.333000,543.422000C1673.931000,566.569000,1659.942000,586.048000,1642.364000,601.869000C1624.786000,617.690000,1604.421000,629.631000,1581.280000,637.685000C1558.134000,645.746000,1533.819000,649.769000,1508.331000,649.769000C1493.390000,649.769000,1478.737000,648.451000,1464.386000,645.814000C1450.029000,643.177000,1436.550000,639.374000,1423.956000,634.388000C1419.267000,637.904000,1415.235000,642.298000,1411.872000,647.572000C1408.501000,652.845000,1406.817000,658.710000,1406.817000,665.150000C1406.817000,675.993000,1411.501000,684.046000,1420.880000,689.320000C1430.253000,694.593000,1442.702000,698.405000,1458.234000,700.746000C1473.759000,703.095000,1491.338000,704.558000,1510.968000,705.141000C1530.593000,705.732000,1550.739000,706.680000,1571.394000,707.998000C1592.049000,709.316000,1612.187000,711.809000,1631.818000,715.469000C1651.443000,719.135000,1669.021000,725.137000,1684.552000,733.487000C1700.077000,741.837000,1712.527000,753.186000,1721.906000,767.544000C1731.279000,781.896000,1735.969000,800.503000,1735.969000,823.355000C1735.969000,840.054000,1732.453000,855.065000,1725.422000,868.400000C1718.391000,881.727000,1708.943000,893.449000,1697.078000,903.556000C1685.213000,913.663000,1671.437000,922.300000,1655.769000,929.484000C1640.093000,936.660000,1623.537000,942.515000,1606.111000,947.062000C1588.677000,951.601000,1570.955000,954.896000,1552.937000,956.949000C1534.919000,958.996000,1517.705000,960.025000,1501.300000,960.025000C1471.417000,960.025000,1444.536000,958.488000,1420.661000,955.412000C1396.778000,952.336000,1376.495000,947.570000,1359.796000,941.129000C1343.097000,934.682000,1330.202000,926.332000,1321.125000,916.080000C1312.040000,905.822000,1307.502000,893.517000,1307.502000,879.166000C1307.502000,868.908000,1309.843000,859.460000,1314.533000,850.822000C1319.216000,842.176000,1325.443000,834.266000,1333.209000,827.092000C1340.968000,819.909000,1349.688000,813.469000,1359.356000,807.756000C1369.024000,802.043000,1378.836000,796.693000,1388.799000,791.715000C1374.147000,785.563000,1361.918000,776.259000,1352.106000,763.811000C1342.286000,751.355000,1337.383000,734.882000,1337.383000,714.372000C1337.383000,703.537000,1339.285000,693.499000,1343.096000,684.270000C1346.901000,675.041000,1351.811000,666.547000,1357.819000,658.782000C1363.819000,651.022000,1370.411000,643.991000,1377.594000,637.688000C1384.770000,631.391000,1391.725000,626.042000,1398.467000,621.647000C1386.451000,614.616000,1375.397000,606.047000,1365.289000,595.940000C1355.181000,585.833000,1346.537000,574.407000,1339.361000,561.662000C1332.178000,548.918000,1326.616000,534.787000,1322.661000,519.255000C1318.708000,503.728000,1316.731000,486.884000,1316.731000,468.716000ZM1634.455000,858.510000C1634.455000,849.131000,1630.789000,841.441000,1623.469000,835.440000C1616.143000,829.431000,1606.551000,824.597000,1594.686000,820.938000C1582.821000,817.271000,1569.342000,814.490000,1554.256000,812.588000C1539.162000,810.679000,1523.858000,809.216000,1508.332000,808.193000C1492.801000,807.163000,1477.715000,806.214000,1463.068000,805.336000C1448.416000,804.457000,1435.672000,803.283000,1424.836000,801.820000C1418.684000,806.215000,1412.752000,810.973000,1407.039000,816.103000C1401.326000,821.225000,1396.340000,826.650000,1392.098000,832.363000C1387.848000,838.076000,1384.407000,844.077000,1381.770000,850.381000C1379.133000,856.677000,1377.815000,863.049000,1377.815000,869.496000C1377.815000,880.627000,1381.036000,889.932000,1387.483000,897.402000C1393.924000,904.873000,1402.645000,910.804000,1413.631000,915.199000C1424.617000,919.594000,1437.361000,922.670000,1451.863000,924.428000C1466.365000,926.186000,1481.670000,927.065000,1497.785000,927.065000C1519.168000,927.065000,1538.359000,925.233000,1555.353000,921.573000C1572.341000,917.906000,1586.699000,912.927000,1598.419000,906.632000C1610.134000,900.328000,1619.073000,893.077000,1625.226000,884.878000C1631.379000,876.672000,1634.455000,867.883000,1634.455000,858.510000ZM1567.658000,465.200000C1567.658000,448.212000,1566.779000,431.658000,1565.021000,415.542000C1563.263000,399.433000,1560.187000,385.076000,1555.792000,372.476000C1551.397000,359.883000,1545.390000,349.700000,1537.774000,341.934000C1530.153000,334.175000,1520.340000,330.288000,1508.331000,330.288000C1496.315000,330.288000,1486.503000,334.319000,1478.888000,342.373000C1471.267000,350.434000,1465.265000,360.981000,1460.870000,374.014000C1456.475000,387.054000,1453.399000,401.850000,1451.641000,418.399000C1449.883000,434.954000,1449.004000,451.729000,1449.004000,468.716000C1449.004000,486.006000,1449.883000,502.993000,1451.641000,519.693000C1453.399000,536.393000,1456.475000,551.334000,1460.870000,564.517000C1465.265000,577.700000,1471.266000,588.323000,1478.888000,596.378000C1486.503000,604.439000,1496.316000,608.462000,1508.331000,608.462000C1520.341000,608.462000,1530.153000,604.219000,1537.774000,595.718000C1545.389000,587.225000,1551.397000,576.163000,1555.792000,562.540000C1560.187000,548.917000,1563.263000,533.612000,1565.021000,516.617000C1566.779000,499.628000,1567.658000,482.490000,1567.658000,465.200000Z" fill="rgb(0,0,0)" stroke="none" stroke-width="1"></path><path id="e0x4dgd4747dn7" d="M1766.291000,520.132000C1766.291000,481.756000,1771.853000,448.137000,1782.990000,419.278000C1794.121000,390.425000,1808.986000,366.324000,1827.594000,346.988000C1846.196000,327.652000,1867.804000,313.150000,1892.413000,303.482000C1917.022000,293.814000,1942.799000,288.980000,1969.757000,288.980000C1996.708000,288.980000,2022.491000,293.450000,2047.101000,302.383000C2071.710000,311.323000,2093.312000,325.015000,2111.920000,343.472000C2130.522000,361.929000,2145.387000,385.296000,2156.524000,413.565000C2167.655000,441.841000,2173.223000,475.308000,2173.223000,513.980000C2173.223000,552.363000,2167.655000,586.346000,2156.524000,615.933000C2145.386000,645.528000,2130.521000,670.425000,2111.920000,690.640000C2093.312000,710.855000,2071.710000,726.167000,2047.101000,736.564000C2022.492000,746.960000,1996.708000,752.164000,1969.757000,752.164000C1942.799000,752.164000,1917.023000,747.255000,1892.413000,737.443000C1867.804000,727.630000,1846.195000,713.052000,1827.594000,693.716000C1808.986000,674.380000,1794.120000,650.210000,1782.990000,621.206000C1771.853000,592.202000,1766.291000,558.515000,1766.291000,520.132000ZM2036.555000,515.737000C2036.555000,492.302000,2035.744000,469.670000,2034.138000,447.841000C2032.525000,426.019000,2029.372000,406.608000,2024.690000,389.613000C2020.001000,372.625000,2013.264000,359.071000,2004.475000,348.964000C1995.686000,338.857000,1984.109000,333.803000,1969.758000,333.803000C1955.401000,333.803000,1943.830000,339.152000,1935.041000,349.843000C1926.252000,360.541000,1919.509000,374.603000,1914.826000,392.031000C1910.137000,409.465000,1907.060000,429.316000,1905.597000,451.577000C1904.127000,473.845000,1903.400000,496.697000,1903.400000,520.132000C1903.400000,543.574000,1904.128000,566.495000,1905.597000,588.907000C1907.060000,611.319000,1910.136000,631.313000,1914.826000,648.891000C1919.509000,666.469000,1926.252000,680.608000,1935.041000,691.299000C1943.830000,701.996000,1955.400000,707.338000,1969.758000,707.338000C1984.109000,707.338000,1995.686000,701.776000,2004.475000,690.639000C2013.264000,679.509000,2020,664.863000,2024.690000,646.694000C2029.373000,628.533000,2032.525000,608.022000,2034.138000,585.171000C2035.744000,562.319000,2036.555000,539.179000,2036.555000,515.737000Z" fill="rgb(0,0,0)" stroke="none" stroke-width="1"></path><g id="e0x4dgd4747dn8_ts" transform="translate(627.744141,178.984375) scale(1,1)"><g id="e0x4dgd4747dn8" transform="translate(-627.744141,-178.984375)"><path id="e0x4dgd4747dn9" d="M553.477000,179.423000C553.477000,169.172000,555.379000,159.504000,559.190000,150.419000C562.994000,141.341000,568.199000,133.431000,574.791000,126.689000C581.383000,119.953000,589.217000,114.604000,598.302000,110.649000C607.380000,106.694000,617.048000,104.716000,627.306000,104.716000C637.557000,104.716000,647.225000,106.694000,656.310000,110.649000C665.388000,114.604000,673.298000,119.953000,680.040000,126.689000C686.776000,133.432000,692.125000,141.342000,696.080000,150.419000C700.035000,159.503000,702.013000,169.171000,702.013000,179.423000C702.013000,189.970000,700.035000,199.714000,696.080000,208.647000C692.125000,217.587000,686.776000,225.346000,680.040000,231.938000C673.297000,238.530000,665.387000,243.734000,656.310000,247.539000C647.226000,251.343000,637.558000,253.252000,627.306000,253.252000C617.048000,253.252000,607.380000,251.343000,598.302000,247.539000C589.218000,243.735000,581.383000,238.530000,574.791000,231.938000C568.199000,225.346000,562.995000,217.587000,559.190000,208.647000C555.379000,199.713000,553.477000,189.970000,553.477000,179.423000Z" fill="rgb(48,244,212)" stroke="none" stroke-width="1"></path></g></g></g></svg> 